# xmcd
#
# Track frame offsets:
#	182
#	14047
#	29865
#	44642
#	59127
#	73717
#	85805
#	100117
#	114205
#	128797
#	142782
#	154797
#	167600
#	181277
#	195995
#	209997
#	223767
#	237760
#	252032
#	264432
#	278970
#
# Disc length: 3878 seconds
#
# Revision: 1
# Processed by: cddbd v1.5.2PL0 Copyright (c) Steve Scherf et al.
# Submitted via: audiograbber 1.83.01
#
DISCID=3b0f2415
DTITLE=Bing Crosby - The Very Best Of Bing Crosby [Disc 1]
DYEAR=1995
DGENRE=Easy Listening
TTITLE0=Where The Blue Of The Night (with Eddie Lang, Guitar)
TTITLE1=Just One More Chance
TTITLE2=June In January
TTITLE3=It's Easy To Remember
TTITLE4=Red Sails In The Sunset
TTITLE5=I'm An Old Cowhand
TTITLE6=Pennies From Heaven
TTITLE7=Blue Hawaii
TTITLE8=Sweet Leilani
TTITLE9=Too Marvellous For Words
TTITLE10=I've Got A Pocketful Of Dreams
TTITLE11=Mexicali Rose
TTITLE12=Sierra Sue
TTITLE13=New San Antonio Rose
TTITLE14=Only Forever
TTITLE15=Please
TTITLE16=An Apple For The Teacher (with Connie Boswell)
TTITLE17=Dolores (with The Andrews Sisters)
TTITLE18=Be Carefull, It's My Heart
TTITLE19=Moonlight Becomes You
TTITLE20=The Road To Morocco (with Bob Hope)
EXTD=
EXTT0=
EXTT1=
EXTT2=
EXTT3=
EXTT4=
EXTT5=
EXTT6=
EXTT7=
EXTT8=
EXTT9=
EXTT10=
EXTT11=
EXTT12=
EXTT13=
EXTT14=
EXTT15=
EXTT16=
EXTT17=
EXTT18=
EXTT19=
EXTT20=
PLAYORDER=
